HIERARCHY
ROOT Hips
{
	OFFSET -0.001795 -0.223333 0.028219
	CHANNELS 6 Xposition Yposition Zposition Zrotation Yrotation Xrotation 
	JOINT LeftUpLeg
	{
		OFFSET 0.069520 -0.091406 -0.006815
		CHANNELS 3 Zrotation Yrotation Xrotation
		JOINT LeftLeg
		{
			OFFSET 0.034277 -0.375199 -0.004496
			CHANNELS 3 Zrotation Yrotation Xrotation
			JOINT LeftFoot
			{
				OFFSET -0.013596 -0.397961 -0.043693
				CHANNELS 3 Zrotation Yrotation Xrotation
				JOINT LeftToe
				{
					OFFSET 0.026358 -0.055791 0.119288
					CHANNELS 3 Zrotation Yrotation Xrotation
					End Site
					{
						OFFSET 0.000000 0.000000 0.000000
					}
				}
			}
		}
	}
	JOINT RightUpLeg
	{
		OFFSET -0.067670 -0.090522 -0.004320
		CHANNELS 3 Zrotation Yrotation Xrotation
		JOINT RightLeg
		{
			OFFSET -0.038290 -0.382569 -0.008850
			CHANNELS 3 Zrotation Yrotation Xrotation
			JOINT RightFoot
			{
				OFFSET 0.015774 -0.398415 -0.042312
				CHANNELS 3 Zrotation Yrotation Xrotation
				JOINT RightToe
				{
					OFFSET -0.025372 -0.048144 0.123348
					CHANNELS 3 Zrotation Yrotation Xrotation
					End Site
					{
						OFFSET 0.000000 0.000000 0.000000
					}
				}
			}
		}
	}
	JOINT Spine
	{
		OFFSET -0.002533 0.108963 -0.026696
		CHANNELS 3 Zrotation Yrotation Xrotation
		JOINT Spine1
		{
			OFFSET 0.005487 0.135180 0.001092
			CHANNELS 3 Zrotation Yrotation Xrotation
			JOINT Spine2
			{
				OFFSET 0.001457 0.052922 0.025425
				CHANNELS 3 Zrotation Yrotation Xrotation
				JOINT Neck
				{
					OFFSET -0.002778 0.213870 -0.042857
					CHANNELS 3 Zrotation Yrotation Xrotation
					JOINT Head
					{
						OFFSET 0.005152 0.064970 0.051349
						CHANNELS 3 Zrotation Yrotation Xrotation
						End Site
						{
							OFFSET 0.000000 0.000000 0.000000
						}
					}
				}
				JOINT LeftShoulder
				{
					OFFSET 0.078845 0.121749 -0.034090
					CHANNELS 3 Zrotation Yrotation Xrotation
					JOINT LeftArm
					{
						OFFSET 0.090977 0.030469 -0.008868
						CHANNELS 3 Zrotation Yrotation Xrotation
						JOINT LeftForeArm
						{
							OFFSET 0.259612 -0.012772 -0.027456
							CHANNELS 3 Zrotation Yrotation Xrotation
							JOINT LeftHand
							{
								OFFSET 0.249234 0.008986 -0.001171
								CHANNELS 3 Zrotation Yrotation Xrotation
								End Site
								{
									OFFSET 0.000000 0.000000 0.000000
								}
							}
						}
					}
				}
				JOINT RightShoulder
				{
					OFFSET -0.081759 0.118833 -0.038615
					CHANNELS 3 Zrotation Yrotation Xrotation
					JOINT RightArm
					{
						OFFSET -0.096012 0.032551 -0.009143
						CHANNELS 3 Zrotation Yrotation Xrotation
						JOINT RightForeArm
						{
							OFFSET -0.253742 -0.013329 -0.021401
							CHANNELS 3 Zrotation Yrotation Xrotation
							JOINT RightHand
							{
								OFFSET -0.255298 0.007772 -0.005559
								CHANNELS 3 Zrotation Yrotation Xrotation
								End Site
								{
									OFFSET 0.000000 0.000000 0.000000
								}
							}
						}
					}
				}
			}
		}
	}
}
MOTION
Frames: 13
Frame Time: 0.050000
0.000000 0.960296 0.000000 -2.201512 -10.004848 -2.958716 1.585859 0.037993 0.112983 2.677602 -0.892693 14.599222 3.535687 7.026339 -3.511502 0.000000 0.000000 0.000000 -0.246234 0.091049 -0.868978 -1.678462 1.561198 18.082549 1.080466 -3.170054 9.639796 0.000000 0.000000 0.000000 1.951605 0.322727 -4.811131 -8.753498 4.085903 -2.310795 -3.266762 3.870051 1.432443 4.402987 -6.715946 19.726106 0.000000 0.000000 0.000000 5.722452 -2.796887 1.282984 -55.780532 -54.006776 21.956659 147.440935 -42.589362 -97.944750 0.000000 0.000000 0.000000 -22.630122 1.427993 2.250853 -8.984988 39.930694 -4.974998 -54.959319 -18.304451 9.939658 0.000000 0.000000 0.000000 
0.000006 0.956383 0.000552 -2.691069 -10.724308 -3.131170 2.882755 0.090003 0.441753 1.964541 -0.700136 15.207141 3.177392 5.920567 -5.044354 0.000000 0.000000 0.000000 -0.101372 0.159853 -1.647173 -0.464753 1.480183 20.255022 0.215787 -4.240794 8.187081 0.000000 0.000000 0.000000 2.809020 0.513794 -6.547068 -10.133470 5.110770 0.613313 -2.642827 3.649640 0.786648 3.635142 -6.345582 23.301019 0.000000 0.000000 0.000000 1.822010 -2.322949 0.897158 -55.352295 -50.030359 19.457334 147.619178 -45.188154 -101.794784 0.000000 0.000000 0.000000 -21.839699 1.275311 2.304184 -9.964205 38.702253 -5.111810 -58.251875 -15.093796 8.882635 0.000000 0.000000 0.000000 
0.000521 0.951447 -0.000173 -2.405333 -11.990317 -4.283881 1.782525 0.120643 0.858695 2.697607 -0.880173 17.002305 3.943584 7.748708 -6.041437 0.000000 0.000000 0.000000 -1.178824 0.144265 -1.187007 0.069606 1.465898 21.021796 0.936929 -2.444265 7.378759 0.000000 0.000000 0.000000 3.945096 0.480091 -5.180534 -10.982228 5.449916 -0.398529 -3.363950 3.794463 3.278026 3.326330 -6.190903 24.869559 0.000000 0.000000 0.000000 -1.276577 0.583708 -0.299279 -52.849241 -41.694568 13.493776 154.697235 -50.241817 -119.324637 0.000000 0.000000 0.000000 -19.686468 -1.829600 1.602400 -12.722969 40.954846 -6.470561 -61.766624 -13.839937 8.639260 0.000000 0.000000 0.000000 
0.000671 0.947996 -0.001506 -2.262846 -12.203954 -5.091598 0.983015 0.093492 0.654235 4.138991 -1.328064 19.619091 3.718455 6.930490 -7.694442 0.000000 0.000000 0.000000 -1.514818 0.186974 -1.623091 0.650546 1.511397 23.018617 0.555602 -3.029868 6.990121 0.000000 0.000000 0.000000 3.245220 0.380933 -4.426125 -11.349626 5.715187 0.046059 -4.157628 3.742675 4.899605 3.333228 -6.663365 27.227576 0.000000 0.000000 0.000000 -4.649631 2.189817 -1.171645 -52.184851 -35.965489 10.090728 156.305639 -58.784673 -130.202243 0.000000 0.000000 0.000000 -16.121114 -3.464843 0.853524 -18.302127 42.584950 -8.685418 -63.096709 -16.970254 10.603119 0.000000 0.000000 0.000000 
0.000724 0.945967 -0.003353 -2.232412 -12.675874 -5.600618 0.720804 0.009519 -0.229751 3.673217 -1.176532 21.479284 4.579651 9.255379 -7.128340 0.000000 0.000000 0.000000 -1.687383 0.229765 -2.115101 0.994484 1.554180 24.140541 0.551245 -3.338602 7.488013 0.000000 0.000000 0.000000 2.848041 0.293468 -3.549001 -11.224758 5.754109 0.692643 -4.718808 3.833065 5.385527 3.669907 -7.199948 27.640835 0.000000 0.000000 0.000000 -6.230012 1.882387 -1.186245 -50.918441 -27.310035 5.565108 149.009929 -70.856517 -129.907900 0.000000 0.000000 0.000000 -14.806320 -4.277702 0.521707 -20.586289 42.866535 -9.549914 -66.145144 -17.146734 11.310523 0.000000 0.000000 0.000000 
0.000400 0.946221 -0.005518 -2.685257 -12.837423 -5.718398 0.987089 -0.020386 -0.664244 4.179018 -1.340155 22.309390 4.582560 9.300748 -6.747930 0.000000 0.000000 0.000000 -0.968863 0.293533 -2.981494 0.512607 1.864389 25.535967 1.126633 -2.754277 8.587007 0.000000 0.000000 0.000000 2.444323 0.222470 -2.828530 -10.811173 5.605002 1.149265 -5.261818 4.018746 6.151566 4.565441 -8.716986 28.538691 0.000000 0.000000 0.000000 -8.908183 1.944435 -1.459189 -48.495452 -21.061224 2.372423 126.436070 -84.930779 -116.216628 0.000000 0.000000 0.000000 -14.195321 -3.532857 0.535888 -25.048316 42.241099 -10.815582 -68.476737 -20.341311 13.845895 0.000000 0.000000 0.000000 
-0.000433 0.948402 -0.008274 -2.688363 -13.030867 -5.299624 1.364837 -0.075672 -1.458865 3.366392 -1.056566 22.166629 4.880621 10.157590 -5.529842 0.000000 0.000000 0.000000 -0.144733 0.414521 -4.279155 -0.105605 2.128045 25.941213 0.655516 -4.770600 10.694977 0.000000 0.000000 0.000000 1.797759 0.123404 -1.762550 -10.828762 5.570955 0.861169 -5.763744 3.867781 6.832405 5.371425 -9.706105 28.240367 0.000000 0.000000 0.000000 -11.459014 -0.445735 -0.551714 -46.228998 -16.502086 0.280820 10.787223 -80.014128 -4.114526 0.000000 0.000000 0.000000 -14.109014 -2.717206 0.705800 -28.043545 39.940936 -11.007986 -73.146887 -20.846700 15.281640 0.000000 0.000000 0.000000 
-0.002149 0.949755 -0.011551 -3.140296 -13.058205 -4.863994 2.515704 -0.075777 -2.101244 2.899317 -0.907423 21.362554 4.694776 9.829807 -3.910860 0.000000 0.000000 0.000000 0.848419 0.560058 -5.548463 -0.460261 2.298893 26.386019 0.648649 -5.853464 13.063543 0.000000 0.000000 0.000000 1.297841 0.014207 -0.164876 -10.608666 5.567158 1.665613 -6.118978 3.137143 6.491043 7.228968 -12.426019 29.616508 0.000000 0.000000 0.000000 -14.036204 -2.403719 0.320307 -43.889735 -12.346174 -1.313184 3.874095 -72.929056 1.542817 0.000000 0.000000 0.000000 -14.786526 -1.678394 1.088585 -31.511240 39.051585 -11.882319 -75.568686 -22.202824 16.808856 0.000000 0.000000 0.000000 
-0.004723 0.949995 -0.015755 -3.104213 -13.581942 -4.804098 3.212872 -0.066487 -2.555426 1.667541 -0.475626 21.387899 5.142262 10.942775 -3.106255 0.000000 0.000000 0.000000 1.475682 0.689342 -6.546256 -0.961252 2.609219 27.160358 0.539580 -6.519764 14.025083 0.000000 0.000000 0.000000 0.865610 -0.100405 2.018425 -11.670924 6.082248 1.179583 -6.308058 2.861300 7.854189 8.109369 -13.619104 29.826813 0.000000 0.000000 0.000000 -15.359350 -5.941081 2.223160 -42.153581 -11.342101 -1.843655 12.235994 -65.612469 -3.867457 0.000000 0.000000 0.000000 -15.834591 -0.046483 1.542918 -33.132135 37.810288 -12.002926 -76.824902 -21.045332 16.009988 0.000000 0.000000 0.000000 
-0.007928 0.948778 -0.020805 -3.494012 -14.485098 -4.816099 4.328701 -0.034759 -3.398052 1.080773 -0.201732 22.350871 5.313943 11.392172 -2.213934 0.000000 0.000000 0.000000 2.163749 0.799665 -7.267863 -1.036969 2.759981 27.549078 -0.969460 -7.923378 10.525483 0.000000 0.000000 0.000000 0.636650 -0.190176 4.219108 -12.384963 6.504688 1.246941 -6.635599 2.407424 8.478605 9.506491 -15.426751 30.143117 0.000000 0.000000 0.000000 -14.839076 -8.603930 3.745334 -43.193032 -10.831094 -2.129084 16.181957 -58.713636 -5.397927 0.000000 0.000000 0.000000 -18.295477 2.142379 2.243335 -33.923669 38.529566 -12.800796 -74.202670 -19.651130 14.026729 0.000000 0.000000 0.000000 
-0.010999 0.946393 -0.027037 -3.457872 -15.615734 -5.178118 4.537180 -0.030142 -4.000807 1.198746 -0.108690 23.813841 5.515319 11.884161 -2.007791 0.000000 0.000000 0.000000 2.622392 0.941203 -8.198240 -1.217627 3.103584 28.786370 -1.621460 -9.244178 10.546811 0.000000 0.000000 0.000000 0.229239 -0.261315 7.172943 -13.598935 7.077655 0.524822 -6.705094 1.865981 9.866763 9.895392 -16.061909 31.381840 0.000000 0.000000 0.000000 -16.191236 -12.775721 6.292634 -41.664582 -11.995809 -1.937870 18.790972 -50.546992 -5.664976 0.000000 0.000000 0.000000 -20.098051 4.797968 2.905502 -37.271639 40.667733 -15.340900 -69.562430 -15.774293 10.074399 0.000000 0.000000 0.000000 
-0.013212 0.943410 -0.034312 -4.054685 -17.212473 -5.436764 5.567387 0.060378 -4.686036 0.665501 0.288725 25.390810 6.256780 13.559960 -1.621286 0.000000 0.000000 0.000000 3.666555 1.068984 -8.739858 -1.024439 3.270962 29.402697 -1.580042 -9.793081 11.782915 0.000000 0.000000 0.000000 0.416360 -0.322265 10.247368 -14.197374 7.407554 0.305697 -7.094791 1.609622 10.863530 11.550132 -18.596479 32.475452 0.000000 0.000000 0.000000 -16.491798 -15.786131 8.151079 -40.827053 -14.163084 -1.354016 19.664290 -41.115339 -4.842665 0.000000 0.000000 0.000000 -21.475249 7.671706 3.468595 -41.472659 43.026367 -18.590208 -62.366285 -11.111749 6.071307 0.000000 0.000000 0.000000 
-0.013935 0.941373 -0.042489 -4.472614 -17.891418 -5.306081 5.788255 0.047776 -6.242117 1.077013 0.298000 27.037967 6.896680 14.877365 -0.654691 0.000000 0.000000 0.000000 4.501685 1.295958 -9.879858 -1.426951 3.613589 30.187974 -1.178895 -9.350773 12.287573 0.000000 0.000000 0.000000 0.416395 -0.330645 13.052338 -14.485595 7.828977 1.521874 -7.607007 0.872027 10.585697 12.400088 -19.782589 33.254799 0.000000 0.000000 0.000000 -17.696947 -19.766712 10.650822 -38.985253 -16.164072 -0.743287 17.714261 -33.331226 -3.429129 0.000000 0.000000 0.000000 -22.657328 10.853761 4.018392 -44.429437 43.904851 -20.630283 -56.887369 -4.645139 2.249046 0.000000 0.000000 0.000000 
